<?xml version="1.0" encoding="UTF-8"?>
<svg version="1.1" xmlns="http://www.w3.org/2000/svg" width="420" height="594">
<path d="M0 0 C4.59041573 -0.06908652 9.17900877 -0.12875125 13.76953125 -0.16479492 C15.32916394 -0.17982869 16.88875472 -0.20026135 18.44824219 -0.22631836 C20.69737116 -0.26294211 22.94593847 -0.27978021 25.1953125 -0.29296875 C25.8861795 -0.30845261 26.57704651 -0.32393646 27.28884888 -0.33988953 C31.93280036 -0.34148334 35.04656211 0.58260886 39 3 C41.24971112 5.73877876 40.9976919 7.02677393 40.6875 10.625 C40 14 40 14 39 16 C39.99 16.33 40.98 16.66 42 17 C43.125 23.625 43.125 23.625 42 27 C36.94692977 30.36871349 31.99615644 30.14023143 26.07421875 30.09765625 C24.95283257 30.09553383 24.95283257 30.09553383 23.80879211 30.09336853 C21.43498635 30.08779764 19.06127697 30.0752506 16.6875 30.0625 C15.07226699 30.05748123 13.4570325 30.05291899 11.84179688 30.04882812 C7.89446478 30.03869117 3.94733953 30.0191103 0 30 C0 20.1 0 10.2 0 0 Z M13 9 C13 9.99 13 10.98 13 12 C16.96 12 20.92 12 25 12 C25.33 11.01 25.66 10.02 26 9 C21.71 9 17.42 9 13 9 Z M13 19 C13 19.99 13 20.98 13 22 C15.12472576 22.05386629 17.24983652 22.09273071 19.375 22.125 C21.15003906 22.15980469 21.15003906 22.15980469 22.9609375 22.1953125 C26.11153817 22.32866229 26.11153817 22.32866229 28 20 C26.86298403 18.63467451 26.86298403 18.63467451 23.83984375 18.90234375 C22.55207031 18.91394531 21.26429688 18.92554688 19.9375 18.9375 C18.64714844 18.94652344 17.35679687 18.95554687 16.02734375 18.96484375 C15.02832031 18.97644531 14.02929688 18.98804688 13 19 Z " fill="#131313" transform="translate(259,255)"/>
<path d="M0 0 C4.28731985 -0.06919165 8.57267233 -0.12882248 12.86010742 -0.16479492 C14.31590368 -0.17980313 15.77165532 -0.20021633 17.22729492 -0.22631836 C19.33002789 -0.26305676 21.43215885 -0.2798056 23.53515625 -0.29296875 C24.797229 -0.3086792 26.05930176 -0.32438965 27.35961914 -0.34057617 C34.04302094 0.28469011 38.60194784 2.82582099 43 8 C44.65112454 12.95337361 44.85967138 17.9639362 42.8125 22.8125 C39.31179521 27.03748855 36.43518274 29.22721393 31 30 C28.57794354 30.0805562 26.15384395 30.10762899 23.73046875 30.09765625 C23.04946609 30.0962413 22.36846344 30.09482635 21.66682434 30.09336853 C19.50700353 30.08780298 17.34728911 30.07525703 15.1875 30.0625 C13.71679838 30.05748054 12.24609512 30.05291841 10.77539062 30.04882812 C7.18352049 30.03869877 3.59187835 30.01911703 0 30 C0 20.1 0 10.2 0 0 Z M14 9 C14 13.29 14 17.58 14 22 C21.24613573 22.31805967 21.24613573 22.31805967 28 20 C29.39681568 18.83016556 29.39681568 18.83016556 29.125 15.5625 C29.2526281 12.15894416 29.2526281 12.15894416 28 10 C24.85069107 8.95023036 22.61185544 8.89868405 19.3125 8.9375 C17.559375 8.958125 15.80625 8.97875 14 9 Z " fill="#161616" transform="translate(123,255)"/>
<path d="M0 0 C4.28731985 -0.06919165 8.57267233 -0.12882248 12.86010742 -0.16479492 C14.31590368 -0.17980313 15.77165532 -0.20021633 17.22729492 -0.22631836 C19.33002789 -0.26305676 21.43215885 -0.2798056 23.53515625 -0.29296875 C24.797229 -0.3086792 26.05930176 -0.32438965 27.35961914 -0.34057617 C32.7218084 0.16108395 36.51044668 1.8990258 40.875 5.125 C43.76212913 9.03111588 44.13159967 12.21306216 44 17 C43.34920801 21.33861325 42.41551134 23.9631341 39.1875 26.875 C34.13152572 30.24564952 29.71647459 30.12229002 23.73046875 30.09765625 C23.04946609 30.0962413 22.36846344 30.09482635 21.66682434 30.09336853 C19.50700353 30.08780298 17.34728911 30.07525703 15.1875 30.0625 C13.71679838 30.05748054 12.24609512 30.05291841 10.77539062 30.04882812 C7.18352049 30.03869877 3.59187835 30.01911703 0 30 C0 20.1 0 10.2 0 0 Z M14 9 C14 13.29 14 17.58 14 22 C21.24613573 22.31805967 21.24613573 22.31805967 28 20 C29.37771762 18.83524938 29.37771762 18.83524938 29.3125 15.625 C29.38762505 12.0393559 29.38762505 12.0393559 27.33984375 10.28515625 C24.43798421 8.69131353 22.53914602 8.6950305 19.25 8.8125 C17.5175 8.874375 15.785 8.93625 14 9 Z " fill="#151515" transform="translate(346,255)"/>
<path d="M0 0 C4.28731985 -0.06919165 8.57267233 -0.12882248 12.86010742 -0.16479492 C14.31590368 -0.17980313 15.77165532 -0.20021633 17.22729492 -0.22631836 C19.33002789 -0.26305676 21.43215885 -0.2798056 23.53515625 -0.29296875 C24.797229 -0.3086792 26.05930176 -0.32438965 27.35961914 -0.34057617 C32.22295056 0.11441325 36.18210222 1.41666967 39.9375 4.6875 C41.50445003 8.09792066 41.56347012 11.3518922 41 15 C39.5 18 39.5 18 38 20 C38.66 20.99 39.32 21.98 40 23 C40.39387788 25.32387947 40.73486085 27.65793749 41 30 C36.71 30 32.42 30 28 30 C27.7525 29.030625 27.505 28.06125 27.25 27.0625 C25.32917374 23.73936886 25.32917374 23.73936886 22.12890625 23.37890625 C19.0778553 23.14531578 16.05957276 23.00948705 13 23 C13 25.31 13 27.62 13 30 C8.71 30 4.42 30 0 30 C0 20.1 0 10.2 0 0 Z M13 9 C13 10.65 13 12.3 13 14 C14.58323688 14.027193 16.16661062 14.04648306 17.75 14.0625 C18.63171875 14.07410156 19.5134375 14.08570313 20.421875 14.09765625 C22.7818838 14.00826198 24.74498524 13.66912821 27 13 C26.67 11.68 26.34 10.36 26 9 C21.71 9 17.42 9 13 9 Z " fill="#171717" transform="translate(170,255)"/>
<path d="M0 0 C0.98097656 -0.02449219 1.96195313 -0.04898438 2.97265625 -0.07421875 C10.30652317 -0.10391052 13.42931041 1.1890607 18.9375 5.9375 C21.89938849 9.52294396 21.523104 14.16944775 21.453125 18.578125 C20.94105726 22.94289289 19.58010195 25.63743616 16.125 28.375 C7.72807821 32.65789064 -2.4219583 32.49159161 -11.375 30.1875 C-15.50153972 28.77892154 -17.65916411 27.2527128 -19.875 23.375 C-20.308125 22.6325 -20.74125 21.89 -21.1875 21.125 C-22.21738672 17.00545314 -22.08089118 13.45272452 -20.875 9.375 C-15.5472526 0.70306653 -9.57273454 0.01248075 0 0 Z M-5.875 10.375 C-7.25130292 16.21180873 -7.25130292 16.21180873 -4.875 21.375 C-1.52306988 22.18194614 1.10849013 22.58900208 4.5 21.875 C7.13710982 19.44074478 6.94300194 16.83296323 7.125 13.375 C6.795 12.385 6.465 11.395 6.125 10.375 C3.87987738 9.25243869 2.61043351 9.24086238 0.125 9.25 C-0.57625 9.24742187 -1.2775 9.24484375 -2 9.2421875 C-3.96653775 9.26122764 -3.96653775 9.26122764 -5.875 10.375 Z " fill="#161616" transform="translate(233.875,254.625)"/>
<path d="M0 0 C4.62 0 9.24 0 14 0 C14 3.96 14 7.92 14 12 C18.62 12 23.24 12 28 12 C28 8.04 28 4.08 28 0 C32.29 0 36.58 0 41 0 C41 9.9 41 19.8 41 30 C36.71 30 32.42 30 28 30 C28 26.37 28 22.74 28 19 C23.38 19 18.76 19 14 19 C14 22.63 14 26.26 14 30 C9.38 30 4.76 30 0 30 C0 20.1 0 10.2 0 0 Z " fill="#131313" transform="translate(32,255)"/>
<path d="M0 0 C4.29 0 8.58 0 13 0 C13.06058594 1.10859375 13.12117188 2.2171875 13.18359375 3.359375 C13.26802951 4.8229282 13.35267599 6.28646925 13.4375 7.75 C13.47681641 8.47960937 13.51613281 9.20921875 13.55664062 9.9609375 C13.76147098 13.4272973 14.0852002 16.65333026 15 20 C19.10223585 21.01540112 19.10223585 21.01540112 23 20 C23.33 13.4 23.66 6.8 24 0 C28.95 0 33.9 0 39 0 C39.05425013 2.87525669 39.09379277 5.74947646 39.125 8.625 C39.14175781 9.43324219 39.15851563 10.24148438 39.17578125 11.07421875 C39.22528282 17.16291228 38.72706058 21.82883813 34.8125 26.75 C28.45325566 31.83739547 20.80500706 31.63859149 13 31 C8.17697278 30.14845662 5.14788959 29.23618879 1.765625 25.59375 C-1.07286632 21.01522462 -0.42436182 15.82232355 -0.25 10.625 C-0.23195313 9.60277344 -0.21390625 8.58054687 -0.1953125 7.52734375 C-0.14840557 5.01782302 -0.07666924 2.50878783 0 0 Z " fill="#141414" transform="translate(304,255)"/>
<path d="M0 0 C14.34798206 -1.0735426 14.34798206 -1.0735426 18.3984375 1.55859375 C19.84595587 3.31326845 21.0007434 4.95985111 22 7 C24.90802461 4.78071806 26.95312762 3.07030857 29 0 C31.7885289 -0.22107787 34.34653181 -0.28107535 37.125 -0.1875 C37.87910156 -0.17396484 38.63320312 -0.16042969 39.41015625 -0.14648438 C41.27374127 -0.11109985 43.13695978 -0.05729167 45 0 C43.26142784 3.76690636 41.09741625 6.21232537 38 9 C37.34 9 36.68 9 36 9 C35.7525 9.598125 35.505 10.19625 35.25 10.8125 C34 13 34 13 31.96875 14.1875 C29.66152874 15.94615029 29.66152874 15.94615029 29.390625 19.35546875 C29.32101563 21.25232422 29.32101563 21.25232422 29.25 23.1875 C29.1675 25.435625 29.085 27.68375 29 30 C24.38 30 19.76 30 15 30 C15 25.05 15 20.1 15 15 C13.68 14.34 12.36 13.68 11 13 C9.01464502 11.20319829 7.12450109 9.4040208 5.25 7.5 C4.74339844 7.00113281 4.23679687 6.50226563 3.71484375 5.98828125 C0 2.25341139 0 2.25341139 0 0 Z " fill="#181818" transform="translate(76,255)"/>
<path d="" fill="#FFFFFF" transform="translate(0,0)"/>
<path d="" fill="#FFFFFF" transform="translate(0,0)"/>
<path d="" fill="#FFFFFF" transform="translate(0,0)"/>
<path d="" fill="#FFFFFF" transform="translate(0,0)"/>
<path d="" fill="#FFFFFF" transform="translate(0,0)"/>
<path d="" fill="#FFFFFF" transform="translate(0,0)"/>
<path d="" fill="#FFFFFF" transform="translate(0,0)"/>
<path d="" fill="#FFFFFF" transform="translate(0,0)"/>
<path d="" fill="#FFFFFF" transform="translate(0,0)"/>
<path d="" fill="#FFFFFF" transform="translate(0,0)"/>
<path d="" fill="#FFFFFF" transform="translate(0,0)"/>
<path d="" fill="#FFFFFF" transform="translate(0,0)"/>
<path d="" fill="#FFFFFF" transform="translate(0,0)"/>
<path d="" fill="#FFFFFF" transform="translate(0,0)"/>
<path d="" fill="#FFFFFF" transform="translate(0,0)"/>
<path d="" fill="#FFFFFF" transform="translate(0,0)"/>
<path d="" fill="#FFFFFF" transform="translate(0,0)"/>
<path d="" fill="#FFFFFF" transform="translate(0,0)"/>
<path d="" fill="#FFFFFF" transform="translate(0,0)"/>
<path d="" fill="#FFFFFF" transform="translate(0,0)"/>
<path d="" fill="#FFFFFF" transform="translate(0,0)"/>
<path d="" fill="#FFFFFF" transform="translate(0,0)"/>
<path d="" fill="#FFFFFF" transform="translate(0,0)"/>
<path d="" fill="#FFFFFF" transform="translate(0,0)"/>
<path d="" fill="#FFFFFF" transform="translate(0,0)"/>
<path d="" fill="#FFFFFF" transform="translate(0,0)"/>
<path d="" fill="#FFFFFF" transform="translate(0,0)"/>
<path d="" fill="#FFFFFF" transform="translate(0,0)"/>
<path d="" fill="#FFFFFF" transform="translate(0,0)"/>
<path d="" fill="#FFFFFF" transform="translate(0,0)"/>
<path d="" fill="#FFFFFF" transform="translate(0,0)"/>
<path d="" fill="#FFFFFF" transform="translate(0,0)"/>
<path d="" fill="#FFFFFF" transform="translate(0,0)"/>
<path d="" fill="#FFFFFF" transform="translate(0,0)"/>
<path d="" fill="#FFFFFF" transform="translate(0,0)"/>
<path d="" fill="#FFFFFF" transform="translate(0,0)"/>
<path d="" fill="#FFFFFF" transform="translate(0,0)"/>
<path d="" fill="#FFFFFF" transform="translate(0,0)"/>
<path d="" fill="#FFFFFF" transform="translate(0,0)"/>
<path d="" fill="#FFFFFF" transform="translate(0,0)"/>
<path d="" fill="#FFFFFF" transform="translate(0,0)"/>
<path d="" fill="#FFFFFF" transform="translate(0,0)"/>
<path d="" fill="#FFFFFF" transform="translate(0,0)"/>
<path d="" fill="#FFFFFF" transform="translate(0,0)"/>
<path d="" fill="#FFFFFF" transform="translate(0,0)"/>
<path d="" fill="#FFFFFF" transform="translate(0,0)"/>
<path d="" fill="#FFFFFF" transform="translate(0,0)"/>
<path d="" fill="#FFFFFF" transform="translate(0,0)"/>
<path d="" fill="#FFFFFF" transform="translate(0,0)"/>
<path d="" fill="#FFFFFF" transform="translate(0,0)"/>
<path d="" fill="#FFFFFF" transform="translate(0,0)"/>
<path d="" fill="#FFFFFF" transform="translate(0,0)"/>
<path d="" fill="#FFFFFF" transform="translate(0,0)"/>
<path d="" fill="#FFFFFF" transform="translate(0,0)"/>
<path d="" fill="#FFFFFF" transform="translate(0,0)"/>
<path d="" fill="#FFFFFF" transform="translate(0,0)"/>
<path d="" fill="#FFFFFF" transform="translate(0,0)"/>
<path d="" fill="#FFFFFF" transform="translate(0,0)"/>
<path d="" fill="#FFFFFF" transform="translate(0,0)"/>
<path d="" fill="#FFFFFF" transform="translate(0,0)"/>
<path d="" fill="#FFFFFF" transform="translate(0,0)"/>
<path d="" fill="#FFFFFF" transform="translate(0,0)"/>
<path d="" fill="#FFFFFF" transform="translate(0,0)"/>
<path d="" fill="#FFFFFF" transform="translate(0,0)"/>
<path d="" fill="#FFFFFF" transform="translate(0,0)"/>
<path d="" fill="#FFFFFF" transform="translate(0,0)"/>
<path d="" fill="#FFFFFF" transform="translate(0,0)"/>
<path d="" fill="#FFFFFF" transform="translate(0,0)"/>
<path d="" fill="#FFFFFF" transform="translate(0,0)"/>
<path d="" fill="#FFFFFF" transform="translate(0,0)"/>
<path d="" fill="#FFFFFF" transform="translate(0,0)"/>
<path d="" fill="#FFFFFF" transform="translate(0,0)"/>
<path d="" fill="#FFFFFF" transform="translate(0,0)"/>
<path d="" fill="#FFFFFF" transform="translate(0,0)"/>
<path d="" fill="#FFFFFF" transform="translate(0,0)"/>
<path d="" fill="#FFFFFF" transform="translate(0,0)"/>
<path d="" fill="#FFFFFF" transform="translate(0,0)"/>
<path d="" fill="#FFFFFF" transform="translate(0,0)"/>
</svg>
